<svg viewBox="0 0 100 100" width="100" height="100" xmlns="http://www.w3.org/2000/svg">
<line x1="5" y1="5" x2="95" y2="95" stroke="blue" />
<line x1="5" y1="10" x2="95" y2="90" stroke="blue" />
<line x1="5" y1="15" x2="95" y2="85" stroke="blue" />
<line x1="5" y1="20" x2="95" y2="80" stroke="blue" />
<line x1="5" y1="25" x2="95" y2="75" stroke="blue" />
<line x1="5" y1="30" x2="95" y2="70" stroke="blue" />
<line x1="5" y1="35" x2="95" y2="65" stroke="blue" />
<line x1="5" y1="40" x2="95" y2="60" stroke="blue" />
<line x1="5" y1="45" x2="95" y2="55" stroke="blue" />
<line x1="5" y1="50" x2="95" y2="50" stroke="blue" />
<line x1="5" y1="55" x2="95" y2="45" stroke="blue" />
<line x1="5" y1="60" x2="95" y2="40" stroke="blue" />
<line x1="5" y1="65" x2="95" y2="35" stroke="blue" />
<line x1="5" y1="70" x2="95" y2="30" stroke="blue" />
<line x1="5" y1="75" x2="95" y2="25" stroke="blue" />
<line x1="5" y1="80" x2="95" y2="20" stroke="blue" />
<line x1="5" y1="85" x2="95" y2="15" stroke="blue" />
<line x1="5" y1="90" x2="95" y2="10" stroke="blue" />
<line x1="5" y1="95" x2="95" y2="5" stroke="blue" />
<line x1="5" y1="100" x2="95" y2="0" stroke="blue" />
<line x1="5" y1="5" x2="95" y2="95" stroke="blue" />
<line x1="10" y1="5" x2="90" y2="95" stroke="blue" />
<line x1="15" y1="5" x2="85" y2="95" stroke="blue" />
<line x1="20" y1="5" x2="80" y2="95" stroke="blue" />
<line x1="25" y1="5" x2="75" y2="95" stroke="blue" />
<line x1="30" y1="5" x2="70" y2="95" stroke="blue" />
<line x1="35" y1="5" x2="65" y2="95" stroke="blue" />
<line x1="40" y1="5" x2="60" y2="95" stroke="blue" />
<line x1="45" y1="5" x2="55" y2="95" stroke="blue" />
<line x1="50" y1="5" x2="50" y2="95" stroke="blue" />
<line x1="55" y1="5" x2="45" y2="95" stroke="blue" />
<line x1="60" y1="5" x2="40" y2="95" stroke="blue" />
<line x1="65" y1="5" x2="35" y2="95" stroke="blue" />
<line x1="70" y1="5" x2="30" y2="95" stroke="blue" />
<line x1="75" y1="5" x2="25" y2="95" stroke="blue" />
<line x1="80" y1="5" x2="20" y2="95" stroke="blue" />
<line x1="85" y1="5" x2="15" y2="95" stroke="blue" />
<line x1="90" y1="5" x2="10" y2="95" stroke="blue" />
<line x1="95" y1="5" x2="5" y2="95" stroke="blue" />
<line x1="100" y1="5" x2="0" y2="95" stroke="blue" />
</svg>